# xmcd
#
# Track frame offsets:
#  150
#  13375
#  25348
#  40387
#  51879
#  66468
#  76420
#  89222
#  102965
#  115628
#
# Disc length: 1701 seconds
#
# Revision: 0
# Processed by: cddbd v1.5.1PL2 Copyright (c) Steve Scherf et al.
# Submitted via: Collectorz.com_Music_Collector 6.10
#
DISCID=8a06a30a
DTITLE=Professor Longhair - Mardi Gras in New Orleans
DYEAR=2006
DGENRE=Blues
TTITLE0=Mari Gras In New Orleans
TTITLE1=Tipitina
TTITLE2=Ball the Wall
TTITLE3=In the Night
TTITLE4=Longhair's Blues-Rhumba
TTITLE5=Who's Been Fooling You
TTITLE6=She Walks Right In
TTITLE7=Hey Little Girl
TTITLE8=Willie Mae
TTITLE9=Boogie Woogie
EXTD=
EXTT0=
EXTT1=
EXTT2=
EXTT3=
EXTT4=
EXTT5=
EXTT6=
EXTT7=
EXTT8=
EXTT9=
PLAYORDER=
